<svg width="81" height="38" viewBox="0 0 81 38" fill="none" xmlns="http://www.w3.org/2000/svg">
<path d="M0.341797 11.8047H5.59082L12.4512 32.2393L19.3359 11.8047H24.5605L14.917 37H10.0098L0.341797 11.8047ZM29.7852 0.671875H34.668V27.4541C34.668 30.6768 35.4004 32.5729 36.8652 33.1426C37.3535 33.3379 37.8743 33.4355 38.4277 33.4355C38.9811 33.4355 39.4775 33.3704 39.917 33.2402V37L39.0137 37.0977C38.7207 37.1302 38.4359 37.1465 38.1592 37.1465C35.0342 37.1465 32.7799 36.1211 31.3965 34.0703C30.3223 32.459 29.7852 30.2617 29.7852 27.4785V0.671875ZM51.123 4.48047C51.123 5.4082 50.8138 6.12435 50.1953 6.62891C49.5931 7.11719 48.8363 7.36133 47.9248 7.36133C47.0133 7.36133 46.2565 7.11719 45.6543 6.62891C45.0684 6.12435 44.7754 5.4082 44.7754 4.48047C44.7754 3.53646 45.0684 2.82031 45.6543 2.33203C46.2565 1.84375 47.0133 1.59961 47.9248 1.59961C48.8363 1.59961 49.5931 1.84375 50.1953 2.33203C50.8138 2.82031 51.123 3.53646 51.123 4.48047ZM45.4102 11.8047H50.293V37H45.4102V11.8047ZM75.6104 34.1924C74.2106 35.2829 72.6237 36.0885 70.8496 36.6094C69.0918 37.1139 67.1875 37.3662 65.1367 37.3662C63.1022 37.3662 60.8236 37.2441 58.3008 37V0.671875H63.1836V14.3193C64.2578 13.0986 65.7471 12.2279 67.6514 11.707C68.3675 11.5117 69.0999 11.4141 69.8486 11.4141C70.6136 11.4141 71.3867 11.4954 72.168 11.6582C72.9492 11.8047 73.7223 12.0651 74.4873 12.4395C75.2686 12.8138 76.0091 13.3102 76.709 13.9287C77.4089 14.5472 78.0273 15.3203 78.5645 16.248C79.7526 18.2337 80.3467 20.5938 80.3467 23.3281C80.3467 26.0462 79.9072 28.2598 79.0283 29.9688C78.1657 31.6777 77.0264 33.0856 75.6104 34.1924ZM63.208 33.4111C63.6637 33.5413 64.5589 33.6064 65.8936 33.6064C67.2282 33.6064 68.4814 33.4193 69.6533 33.0449C70.8252 32.6706 71.8262 32.0846 72.6562 31.2871C74.3978 29.6107 75.2686 27.1123 75.2686 23.792C75.2686 19.7393 74.0885 17.0863 71.7285 15.833C70.8822 15.3936 70.0195 15.1738 69.1406 15.1738C68.2617 15.1738 67.4967 15.2878 66.8457 15.5156C66.1947 15.7435 65.625 16.0202 65.1367 16.3457C64.209 16.9805 63.5661 17.6641 63.208 18.3965V33.4111Z" fill="#58C3E4"/>
</svg>
